<svg viewBox="0 0 64 64" xmlns="http://www.w3.org/2000/svg" role="img" aria-label="pulseXP Recorder">
  <rect width="64" height="64" rx="15" fill="#E9EEF2"/>
  <g fill="#3B5E78">
    <!-- ponytail -->
    <path d="M41 15c8 1 13 9 12 21-1 8-5 13-9 15 3-8 3-19-3-27-1-4-2-7 0-9z"/>
    <!-- hair silhouette -->
    <path d="M15 34c0-13 8-22 18-22s17 8 17 20c0 3-1 6-2 8-1-8-6-14-15-14s-14 6-15 14c-2-2-3-4-3-6z"/>
    <!-- left cheek hair -->
    <path d="M16 33c-1 8 0 15 4 19-2-6-2-13-1-18z"/>
    <!-- right cheek hair -->
    <path d="M48 35c1 7 0 14-4 18 2-6 3-12 2-17z"/>
  </g>
  <!-- face -->
  <path d="M18 35c0-9 6-15 14-15s14 6 14 15-6 17-14 17-14-8-14-17z" fill="#ffffff"/>
  <!-- bangs -->
  <path d="M19 33c1-8 7-13 13-13s12 5 13 12c-4-4-8-5-12-3-3-2-9-1-14 4z" fill="#3B5E78"/>
  <!-- eyes -->
  <g fill="#3B5E78">
    <path d="M25 34c2 0 4 2 4 4s-2 3-4 3-3-1-3-3 1-4 3-4z"/>
    <path d="M39 34c2 0 4 2 4 4s-2 3-4 3-3-1-3-3 1-4 3-4z"/>
  </g>
  <circle cx="26" cy="35.5" r="1.1" fill="#ffffff"/>
  <circle cx="40" cy="35.5" r="1.1" fill="#ffffff"/>
  <!-- smile -->
  <path d="M27 43c2 2.5 8 2.5 10 0" fill="none" stroke="#3B5E78" stroke-width="2" stroke-linecap="round"/>
  <!-- collar -->
  <path d="M27 50h10v2c0 2-2 3-5 3s-5-1-5-3z" fill="#3B5E78"/>
</svg>
